<?xml version="1.0" encoding="utf-8"?>
<!-- Generator: Adobe Illustrator 27.5.0, SVG Export Plug-In . SVG Version: 6.00 Build 0)  -->
<svg version="1.1" xmlns="http://www.w3.org/2000/svg" xmlns:xlink="http://www.w3.org/1999/xlink" x="0px" y="0px"
	 viewBox="0 0 2200 2200" style="enable-background:new 0 0 2200 2200;" xml:space="preserve">
<g id="background">
	<rect style="fill:#FFFFFF;" width="2200" height="2200"/>
</g>
<g id="Objects">
	<g>
		<g>
			<path style="fill:#AAC68F;" d="M583.328,1143.743c21.625-70.519,55.298-146.683,107.239-236.102
				c-65.334-98.007-68.024-229.986,3.288-332.568c145.844-209.81,336.88-307.506,541.286-284.858
				c208.844,23.131,406.985,188.012,432.817,442.693c-98.915-167.25-214.546-182.23-281.306-158.904
				c-124.644,43.537-84.89,161.72-207.66,338.317c-90.672,130.438-267.602,165.261-400.524,81.038
				c29.086-61.609,69.864-130.645,135.405-224.904c78.038-112.274,275.224-293.193,436.737-333.982
				c-201.13,31.316-432.599,225.905-519.868,351.434c-44.629,64.208-77.923,117.884-103.698,166.273
				c-37.927,71.232-59.597,131.048-77.267,196.29c-4.989,18.44-24.372,28.971-42.537,23.039l-11.45-3.713
				C585.777,1164.517,580.236,1153.826,583.328,1143.743z"/>
			<path style="fill:#AAC68F;" d="M1922.167,1753.353c-124.472,169.296-366.333,258.451-599.803,153.477
				c194.301-2.035,265.084-94.673,278.271-164.157c24.625-129.714-97.605-154.385-189.174-349.008
				c-67.622-143.74-9.312-314.37,130.082-387.372c38.823,55.988,78.21,125.828,127.081,229.699
				c58.206,123.736,116.298,384.969,70.875,545.241c73.439-189.852,20.647-487.609-44.422-625.934
				c-33.294-70.772-63.127-126.438-92.155-172.952c-42.709-68.473-83.682-117.137-131.358-165.054
				c-13.474-13.554-12.887-35.604,1.311-48.365l8.956-8.059c7.841-7.047,19.877-6.495,27.051,1.23
				c50.262,53.987,99.398,121.241,150.856,210.925c117.551-7.565,233.182,56.08,286.364,169.135
				C2054.882,1373.361,2043.983,1587.655,1922.167,1753.353z"/>
			<path style="fill:#AAC68F;" d="M1376.627,1754.468c-71.876,16.532-154.684,25.464-258.095,25.177
				c-52.205,105.595-165.158,173.906-289.641,163.433c-254.634-21.395-434.76-137.98-517.35-326.326
				c-84.384-192.45-40.663-446.475,166.986-596.181c-95.386,169.296-50.55,276.903,3.024,323.072
				c100.03,86.177,182.506-7.346,396.833,10.669c158.306,13.313,276.914,149.12,270.43,306.345
				c-67.886,5.633-148.062,4.817-262.463-4.794c-136.256-11.462-391.522-91.776-507.613-211.247
				c127.691,158.524,411.94,261.693,564.279,274.5c77.934,6.553,141.061,8.542,195.853,6.668
				c80.659-2.759,143.292-13.911,208.626-31.236c18.463-4.886,37.271,6.633,41.238,25.327l2.495,11.772
				C1393.401,1741.96,1386.917,1752.1,1376.627,1754.468z"/>
		</g>
		<g>
			<path d="M525.494,1141.194c-4.209,0-8.442-0.67-12.579-2.021l-11.437-3.709c-13.561-4.438-21.176-19.132-16.995-32.762
				c22.331-72.825,56.923-149.346,105.708-233.82c-31.738-49.122-48.451-106.008-48.376-164.807
				c0.08-61.68,18.801-121.152,54.139-171.986c72.853-104.805,157.365-182.797,251.189-231.81
				c93.138-48.654,192.938-67.496,296.615-56.011c107.437,11.899,210.115,60.352,289.123,136.43
				c85.689,82.514,137.521,190.58,149.888,312.513c0.332,3.27-1.655,6.33-4.778,7.356c-3.123,1.025-6.538-0.258-8.211-3.086
				c-43.74-73.958-94.037-123.775-149.495-148.069c-56.275-24.653-101.518-15.462-123.478-7.789
				c-68.276,23.848-84.706,70.502-109.576,141.123c-18.584,52.769-41.712,118.442-94.644,194.581
				c-44.803,64.451-111.85,108.447-188.79,123.885c-19.956,4.004-40.049,5.983-60.001,5.984
				c-56.747,0.002-112.437-15.997-161.229-46.913c-2.983-1.891-4.091-5.708-2.583-8.901
				c30.854-65.356,72.795-135.03,135.988-225.913c42.188-60.697,112.618-133.683,188.399-195.235
				c48.912-39.728,92.537-68.911,130.511-90.339c-8.988,3.862-18.059,7.986-27.209,12.372
				c-48.518,23.251-98.222,53.285-147.733,89.267c-88.643,64.419-169.242,142.692-215.604,209.38
				c-43.415,62.46-77.193,116.618-103.268,165.568c-34.127,64.097-57.063,122.363-76.688,194.829
				c-2.925,10.809-9.955,19.691-19.797,25.01C538.597,1139.556,532.076,1141.194,525.494,1141.194z M1085.255,255.007
				c-80.502,0-158.188,19.317-231.63,57.682C761.825,360.644,679,437.15,607.45,540.081
				c-33.704,48.482-51.559,105.197-51.635,164.013c-0.073,57.484,16.671,113.045,48.423,160.677c1.48,2.221,1.569,5.091,0.229,7.399
				c-49.387,85.022-84.255,161.773-106.599,234.638c0,0.001,0,0.001,0,0.001c-1.959,6.386,1.605,13.27,7.947,15.346l11.432,3.707
				c6.938,2.266,14.277,1.604,20.682-1.858c6.432-3.476,11.026-9.282,12.939-16.351c19.916-73.536,43.197-132.676,77.846-197.751
				c26.336-49.443,60.396-104.062,104.128-166.979c47.208-67.905,129.028-147.424,218.869-212.714
				c75.135-54.603,189.155-123.5,305.67-141.641c3.698-0.583,7.19,1.855,7.937,5.52c0.746,3.665-1.52,7.268-5.146,8.184
				c-50.348,12.715-134.064,47.123-246.972,138.831c-74.818,60.771-144.251,132.681-185.731,192.359
				c-60.91,87.599-101.882,155.246-132.138,218.257c61.781,37.335,134.576,50.041,205.713,35.768
				c73.378-14.722,137.32-56.682,180.048-118.149c51.852-74.584,74.631-139.267,92.935-191.24
				c25.274-71.768,43.535-123.622,118.164-149.689c23.899-8.35,73.052-18.391,133.712,8.182
				c50.994,22.338,97.582,64.819,138.783,126.476c-17.17-105.667-65.711-199.287-141.515-272.281
				c-76.794-73.947-176.571-121.039-280.953-132.6C1123.09,256.065,1104.094,255.007,1085.255,255.007z M491.176,1104.756h0.01
				H491.176z"/>
			<path d="M1436.478,1920.084c-70.637,0-141.302-15.357-209.137-45.857c-2.997-1.349-4.653-4.6-3.98-7.816
				c0.672-3.218,3.492-5.533,6.778-5.568c85.92-0.899,154.212-19.546,202.979-55.423c49.485-36.406,64.15-80.185,68.488-103.039
				c13.489-71.058-18.703-108.617-67.433-165.472c-36.409-42.479-81.721-95.346-121.198-179.251
				c-33.413-71.023-37.989-151.084-12.888-225.433c25.027-74.13,76.898-134.902,146.057-171.121c3.128-1.638,6.987-0.69,8.999,2.212
				c41.119,59.298,80.492,130.451,127.664,230.707c31.469,66.898,59.46,164.392,74.876,260.795
				c9.952,62.234,13.413,114.618,12.984,158.224c1.15-9.723,2.115-19.651,2.893-29.777c4.121-53.644,2.963-111.707-3.443-172.577
				c-11.47-108.976-38.955-217.909-73.524-291.397c-32.394-68.858-62.409-125.194-91.76-172.226
				c-38.415-61.587-77.407-110.581-130.382-163.823c-7.896-7.943-12.07-18.474-11.756-29.654
				c0.313-11.152,5.055-21.399,13.349-28.854l8.953-8.056c10.613-9.541,27.148-8.79,36.863,1.67
				c51.913,55.761,100.888,123.979,149.639,208.453c58.414-2.917,116.037,11.05,166.916,40.512
				c53.374,30.907,95.517,76.856,121.87,132.878c54.339,115.494,79.628,227.679,75.165,333.438
				c-4.431,104.988-38.006,200.838-99.795,284.885l0,0c-64.033,87.093-157.338,151.788-262.729,182.169
				C1527.989,1913.636,1482.235,1920.084,1436.478,1920.084z M1262.492,1873.64c100.093,37.965,205.44,42.74,306.556,13.589
				c102.432-29.528,193.114-92.4,255.327-177.01l0,0c60.111-81.766,92.775-175.022,97.087-277.182
				c4.366-103.479-20.479-213.459-73.846-326.888c-25.135-53.431-65.322-97.251-116.218-126.723
				c-49.739-28.802-106.226-42.083-163.364-38.407c-2.672,0.165-5.192-1.188-6.521-3.502
				c-48.925-85.268-97.96-153.841-149.907-209.638c-4.553-4.902-12.287-5.255-17.248-0.794l-8.953,8.057
				c-5.417,4.869-8.512,11.558-8.717,18.838c-0.205,7.309,2.525,14.195,7.688,19.389c53.755,54.027,93.332,103.758,132.333,166.285
				c29.646,47.503,59.919,104.314,92.55,173.677c35.2,74.829,63.155,185.442,74.779,295.892
				c9.722,92.371,12.38,225.567-30.163,335.548c-1.35,3.487-5.201,5.299-8.748,4.113c-3.546-1.186-5.535-4.949-4.515-8.547
				c14.159-49.961,26.215-139.667,3.245-283.308c-15.221-95.179-42.779-191.271-73.72-257.046
				c-45.467-96.633-83.565-165.929-122.958-223.544c-63.223,34.837-110.623,91.528-133.83,160.265
				c-23.938,70.906-19.573,147.259,12.292,214.994c38.672,82.192,83.3,134.262,119.16,176.101
				c49.521,57.778,85.302,99.523,70.557,177.192c-4.721,24.874-20.604,72.462-73.946,111.705
				C1396.572,1849.685,1336.489,1868.788,1262.492,1873.64z M1830.015,1714.365h0.01H1830.015z"/>
			<path d="M761.894,1912.149c-8.554,0.001-17.138-0.359-25.741-1.083c-127.196-10.688-236.999-44.879-326.357-101.623
				c-88.706-56.33-154.924-133.332-196.817-228.867c-43.41-99.004-52.787-212.156-26.403-318.615
				c28.616-115.465,96.29-214.381,195.706-286.056c2.666-1.921,6.31-1.729,8.76,0.46c2.45,2.19,3.046,5.791,1.433,8.654
				c-42.179,74.862-60.176,143.33-53.489,203.5c6.784,61.054,37.361,95.647,54.984,110.834
				c54.793,47.206,103.414,38.104,177.013,24.331c54.993-10.292,123.432-23.103,215.837-15.335
				c78.221,6.578,149.846,42.645,201.681,101.557c51.683,58.739,78.374,134.048,75.157,212.052
				c-0.146,3.528-2.896,6.396-6.415,6.688c-71.867,5.965-153.173,4.484-263.628-4.794c-73.665-6.197-172.088-30.704-263.281-65.557
				c-58.878-22.502-105.979-45.7-143.529-67.878c7.85,5.861,15.967,11.663,24.353,17.403c44.395,30.392,95.257,58.42,151.173,83.308
				c100.111,44.559,208.195,75.223,289.122,82.026c75.763,6.371,139.556,8.545,195.027,6.647
				c72.545-2.482,134.473-11.755,207.071-31.007c10.82-2.863,22.026-1.212,31.55,4.646c9.504,5.848,16.013,15.079,18.329,25.995
				l2.495,11.774c2.939,13.949-5.979,27.894-19.878,31.093c-0.001,0-0.001,0-0.001,0.001
				c-74.165,17.058-157.596,25.361-254.899,25.361c-0.151,0-0.304,0-0.455,0c-26.668,52.05-67.574,94.968-118.533,124.302
				C866.157,1898.444,814.67,1912.149,761.894,1912.149z M365.215,1006.638c-82.928,67.7-139.738,156.548-165.052,258.69
				c-25.645,103.477-16.54,213.437,25.636,309.626c40.756,92.941,105.186,167.859,191.5,222.671
				c87.432,55.521,195.104,88.994,320.025,99.49c58.837,4.95,116.875-7.941,167.847-37.282
				c49.819-28.678,89.563-70.961,114.933-122.278c1.181-2.387,3.613-3.897,6.275-3.897c0.007,0,0.013,0,0.02,0
				c1.583,0.005,3.17,0.007,4.746,0.007c96.24,0,178.633-8.187,251.76-25.006c6.515-1.5,10.695-8.028,9.32-14.555l-2.493-11.765
				c-1.513-7.128-5.764-13.156-11.97-16.975c-6.227-3.83-13.554-4.911-20.629-3.037c-73.666,19.535-136.524,28.945-210.178,31.466
				c-56.03,1.915-120.361-0.272-196.679-6.688c-82.403-6.929-192.177-38.026-293.642-83.187
				c-84.854-37.768-201.53-102.064-275.502-193.897c-2.346-2.913-1.989-7.154,0.812-9.633c2.801-2.479,7.054-2.319,9.66,0.363
				c36.189,37.242,107.849,92.536,243.724,144.466c90.035,34.409,187.027,58.59,259.456,64.683
				c106.457,8.944,185.524,10.597,255.071,5.289c1.446-72.172-23.946-141.569-71.869-196.035
				c-49.435-56.184-117.743-90.58-192.343-96.854c-90.517-7.61-157.925,5.008-212.089,15.145
				c-74.795,13.999-128.835,24.111-188.727-27.485c-19.18-16.529-52.446-54.084-59.76-119.895
				C318.921,1134.738,332.42,1073.149,365.215,1006.638z M1284.475,1715.48h0.01H1284.475z"/>
		</g>
	</g>
</g>
</svg>
